PathFileType	4	(X/Y/Z)	9_1_14_p1_0-177_filt_butterworth.trc
DataRate	CameraRate	NumFrames	NumMarkers	Units	OrigDataRate	OrigDataStartFrame	OrigNumFrames
57.0	57.0	6	27	m	57.0	110	177
Frame#	Time	RHip			RKnee			RAnkle			RBigToe			RSmallToe			RHeel			LHip			LKnee			LAnkle			LBigToe			LSmallToe			LHeel			Neck			Head			Nose			RShoulder			RElbow			RWrist			RThumb			RIndex			RPinky			LShoulder			LElbow			LWrist			LThumb			LIndex			LPinky			
		X1	Y1	Z1	X2	Y2	Z2	X3	Y3	Z3	X4	Y4	Z4	X5	Y5	Z5	X6	Y6	Z6	X7	Y7	Z7	X8	Y8	Z8	X9	Y9	Z9	X10	Y10	Z10	X11	Y11	Z11	X12	Y12	Z12	X13	Y13	Z13	X14	Y14	Z14	X15	Y15	Z15	X16	Y16	Z16	X17	Y17	Z17	X18	Y18	Z18	X19	Y19	Z19	X20	Y20	Z20	X21	Y21	Z21	X22	Y22	Z22	X23	Y23	Z23	X24	Y24	Z24	X25	Y25	Z25	X26	Y26	Z26	X27	Y27	Z27	
110	1.9298245614035088	0.31378113660656853	0.5364525583237504	1.1268681662255504	0.3084074911962313	0.5729551462043823	1.5139622107311275	0.2934379347441787	0.6767530505749279	1.9286652947113967	0.2907827753470188	0.4348557953039036	1.8955972263250436	0.34683488993006206	0.4882681640817764	1.902633736604093	0.28234909174382816	0.7198506003062428	1.9701680877727532	0.09198981164378552	0.5080120229401205	1.1302817216144312	0.09727236837728569	0.5584254601530034	1.5183799191882403	0.09918354360672225	0.5961759939453259	1.9106241885090844	0.12861022043512602	0.38826656793854486	1.879910516129096	0.08773182279189809	0.39649579578731853	1.8559888120580519	0.10401497244008137	0.6758419143366914	1.9901932116918908	0.2040599314853977	0.46700229661503545	0.6075447301583505	0.22154952899762712	0.3675100315026669	0.3469605904956598	0.2237825132482386	0.3524863093295233	0.5041729513851065	0.3749694462002751	0.4872666696246932	0.6890046282812994	0.43275995100288805	0.53504192724658	0.9102149313083423	0.4779988509924387	0.5983861063475122	1.1496865670097869	0.4316385309706866	0.5319513104306005	1.2462600883479893	0.44020724256231614	0.5435296681112448	1.2693469052552189	0.46216658319581655	0.5791467309753098	1.2574323994128285	0.0536130058470167	0.46766876617653114	0.691414488809359	-0.02113703414160457	0.49454851707227565	0.919421259452887	-0.035840059252574274	0.5146919458207272	1.1627674784025286	-0.016379337734743846	0.5341899492219621	1.2723943357316325	-0.031349562391558145	0.5304533962353183	1.2836924530099518	-0.06992961109864941	0.5958325679715988	1.2968112363898632
111	1.947368421052632	0.31545902223514904	0.5308947634083682	1.1266860883673218	0.30841597324348957	0.5729620921391436	1.5141143903640817	0.29418114026155334	0.6720955743508042	1.9268892566738618	0.29068092012968805	0.4346202217565051	1.8950459457165745	0.3469312428422705	0.4885713633812836	1.902786474837297	0.2818256062511009	0.717978666508356	1.9710197670530878	0.0934526116300207	0.5082164145526262	1.131487664267523	0.09883954677512279	0.5581324003431828	1.5171332009992367	0.09920094185402732	0.5961558757648131	1.9105327161012997	0.12864024368535262	0.38829423058470336	1.8799178051390386	0.08785340105902396	0.3965227849282645	1.8580736834661096	0.1035895465681316	0.6743829788852453	1.9874640470384168	0.2040772325651683	0.4669660359192115	0.6075045731797533	0.2215212868001438	0.3674625207333621	0.34702782217410244	0.22373063684249142	0.35275326657390405	0.5029573069632342	0.3753730977600833	0.4872854050906663	0.6890185958827646	0.4327174227066791	0.5350305384511136	0.9106232043525643	0.4789792096513006	0.5994033705673653	1.1495348205699853	0.43112390467565764	0.5313423868162428	1.2433344126981796	0.44056296031864983	0.5450862959270771	1.2668575281546393	0.45993899644905667	0.5779022921933857	1.2550108292491204	0.05315929621174277	0.46877710267022565	0.6913091659455061	-0.0203125314762913	0.4990104358603192	0.9198185866690296	-0.035273404998192474	0.5149941223043597	1.1618116098226625	-0.014776087554135101	0.5365655678276673	1.273644742282754	-0.031057088696037127	0.5301326178907936	1.2837232656308557	-0.0679045324846134	0.5985912432444465	1.2987132514838384
112	1.9649122807017545	0.3167065268747827	0.5267541868976074	1.1263920772897642	0.3084253636075921	0.573046397458276	1.5140397417519948	0.2941844164550656	0.6696196240682917	1.9256731854111195	0.2904108619962858	0.4340520542977573	1.8934582152341877	0.3469444969590989	0.4884418277100434	1.9027220399159457	0.2819102076888028	0.7171752209014873	1.971863504236316	0.09457623764309242	0.5083312613857843	1.1324595568424591	0.10164615482983191	0.555562396128875	1.514844655021432	0.09915536379346951	0.5961429030569886	1.9104897732804582	0.1285915970370284	0.3882259926119319	1.879865227169621	0.08682879276856685	0.39649129330378646	1.8604155502610271	0.10346505804551523	0.6740975629121472	1.9854319056162075	0.20411074741929416	0.4669672499387922	0.6074595607288491	0.22146982376274085	0.36744647487983456	0.3470588412401861	0.22370945482063107	0.3529530299347382	0.5020555069912641	0.37655414367874784	0.4877893142062627	0.6890626085423541	0.4327208272295786	0.5352465301900725	0.9128592745513255	0.47938001437903666	0.6025702394302078	1.147197286652621	0.4309649782476155	0.5311511360097991	1.2404687457095647	0.4413599028487096	0.5472946969975384	1.26397608122629	0.4591566053638718	0.5750237144292749	1.2520255944744458	0.051846290141912735	0.47207993605925586	0.6914072580959026	-0.019762670050666734	0.5022955702862117	0.9210790751869199	-0.03420963373591143	0.5160062304476194	1.1615955614457496	-0.014092244851385957	0.5357782424906519	1.2737675276267404	-0.031066821123917638	0.5299805564394996	1.2838213014957394	-0.06593037096367789	0.597691213388269	1.2992155306578983
113	1.9824561403508767	0.31719853006452303	0.5251019498781763	1.1261603306589079	0.30844827007163317	0.5731794756145839	1.5135120290440138	0.29367690482961295	0.6685903636418011	1.9254882656952637	0.29007412960966805	0.43322716743732786	1.8914903585238187	0.3466144791142869	0.4868709782099071	1.9019366554179857	0.2821912168389723	0.7173677383265972	1.9728675182040774	0.09509586037433385	0.5083462740316249	1.1332712123732838	0.10426778149900424	0.5509466701032268	1.5124158224004063	0.09904365301775164	0.5961307995527523	1.9104771153571873	0.1284785175289188	0.38799309140596294	1.8797355721802798	0.08540313344957191	0.39659041260652883	1.8624499181719174	0.10352047841424826	0.6742963808600928	1.9848019534463162	0.20414073675539524	0.4669898935085239	0.6074161662962909	0.22141929038064062	0.36743963792140366	0.3470656500492657	0.22372423351992127	0.3530273703766014	0.5017207964887513	0.3781386863533343	0.4886479089377185	0.6891359851953497	0.432788862091654	0.5355098559412541	0.9153155450063111	0.4795201134692522	0.6068796805368143	1.1436827993669598	0.4313858732207535	0.5319448680675058	1.237823626622305	0.4421585665010094	0.5489401999259088	1.2609516322093932	0.4588816312630113	0.570850531529743	1.2489488056352551	0.050529833575648796	0.47543980841695954	0.691725835417026	-0.019587791995637517	0.5032938158573597	0.922950643429195	-0.03274994863026226	0.517093049370185	1.1617806243387567	-0.014038204181212367	0.5344481588923229	1.2734811085354272	-0.031067694929419798	0.5300014940859216	1.2838978048910872	-0.0637434522651591	0.5933721250137949	1.2982138020770164
114	2.0	0.31729363007230255	0.5249773444475776	1.1265216617309621	0.3086250784668808	0.5728497004680868	1.5121925414535689	0.29330944162597955	0.6680966343178624	1.9262133279200597	0.2898317435275964	0.4325316457016901	1.8900631321897192	0.3457330358534744	0.4831398011084306	1.9000220460616182	0.28256576743467143	0.7181792560054815	1.9746011810962487	0.09515774927930984	0.5083534006371667	1.1344536351408259	0.10511113798967403	0.546534327718065	1.510995484481643	0.0990117694477091	0.596173160859637	1.9104944343816088	0.12836265869169838	0.38772924939840736	1.879604597408031	0.08454318541395585	0.3967478382978349	1.8633853724568934	0.10355953683298275	0.6744431280943439	1.9849670937010766	0.20415428551289974	0.4670012028732719	0.6073845820732842	0.22139572051307838	0.3674066933908969	0.3470727093010256	0.22373525184889767	0.35307069031286187	0.5017218274926759	0.37927228208356883	0.4894705571993335	0.6892235909425667	0.43284522805276504	0.5356531055634505	0.9165178698438909	0.4795781310619567	0.6101068087003058	1.141508956456871	0.4324410409277597	0.5344318285738678	1.2356717719133492	0.4427412128800391	0.5501482493706336	1.2583412363130264	0.45781356744695056	0.5666388944499838	1.2465081922596244	0.049877187315013234	0.47729070312978017	0.6922134082220294	-0.019595240242492738	0.5029664233032126	0.9250665994498695	-0.031614800865264844	0.5178131906216621	1.1619699468470523	-0.013819497061001062	0.5337877137706383	1.2733698328719623	-0.030539773453954304	0.5298354483145691	1.2836571397033236	-0.06146619003720438	0.5876786627292028	1.2964879363809145
115	2.017543859649123	0.31743591078271644	0.525250479992138	1.1281183638174808	0.3092197721877862	0.5709337681458564	1.510401628396681	0.2932353762578264	0.6676930837354812	1.9273765950957662	0.28974571654035897	0.43224212692826985	1.889534382625342	0.34455985332755057	0.4784035011695945	1.8975485391418105	0.28295013490637394	0.7191493971172254	1.976688810156774	0.09497957751958165	0.5083979133838135	1.1359820823721138	0.10431761156443883	0.5438657922725461	1.5111382639732005	0.09943970720870438	0.5964634674994218	1.9106038504838037	0.12827383965750946	0.3875768084790582	1.8795376740021528	0.08435132595386104	0.3968258374281326	1.8634551130035353	0.10348451822647826	0.6744035716099016	1.9851428210731772	0.20415884290431013	0.46698335913058575	0.6073827578091372	0.2214164002068958	0.3673224477885097	0.3470786861162518	0.2236992627369242	0.35322911873828494	0.5017967456542503	0.37960744306488936	0.49006174922199064	0.6893083415846578	0.4328658232036701	0.5356807059871609	0.9166459246957029	0.4795632599191346	0.6113513625832547	1.142203331286353	0.43370719641968664	0.5380791838469807	1.234329438780842	0.44336746790879344	0.5520455055022453	1.2565601617620965	0.45561687535113454	0.5638190625262913	1.2452202079520494	0.049703571691067996	0.47799856969703747	0.6927039940822144	-0.01961336290032584	0.5026867412409199	0.9272145704142294	-0.031161739308668876	0.5180725115631517	1.1620656105981326	-0.01268405697655834	0.5341723535650895	1.2737523421028358	-0.028979055952143354	0.5291648067118994	1.2827558700741202	-0.05984262941623166	0.5835941529085613	1.2951507577813512
